<svg width="18" height="18" viewBox="0 0 18 18" fill="none" xmlns="http://www.w3.org/2000/svg">
<path fill-rule="evenodd" clip-rule="evenodd" d="M4.90909 0C5.36096 0 5.72727 0.366312 5.72727 0.818182V1.63636H12.2727V0.818182C12.2727 0.366312 12.639 0 13.0909 0C13.5428 0 13.9091 0.366312 13.9091 0.818182V1.63636H15.5455C16.9011 1.63636 18 2.7353 18 4.09091V14.7273C18 16.0829 16.9011 17.1818 15.5455 17.1818H2.45455C1.09894 17.1818 0 16.0829 0 14.7273V4.09091C0 2.7353 1.09894 1.63636 2.45455 1.63636H4.09091V0.818182C4.09091 0.366312 4.45722 0 4.90909 0ZM2.45455 3.27273C2.00268 3.27273 1.63636 3.63904 1.63636 4.09091V5.72727H16.3636V4.09091C16.3636 3.63904 15.9973 3.27273 15.5455 3.27273H2.45455ZM16.3636 7.36364H1.63636V14.7273C1.63636 15.1791 2.00268 15.5455 2.45455 15.5455H15.5455C15.9973 15.5455 16.3636 15.1791 16.3636 14.7273V7.36364Z" fill="#1E1E1E"/>
</svg>
